<?xml version="1.0" encoding="UTF-8" standalone="no"?>
<!-- Created with Inkscape (http://www.inkscape.org/) -->

<svg
   width="8in"
   height="6in"
   viewBox="0 0 203.20001 152.4"
   version="1.1"
   id="svg40"
   inkscape:version="1.1.1 (3bf5ae0d25, 2021-09-20)"
   sodipodi:docname="DRONE_FLAT_1.svg"
   inkscape:export-filename="C:\Users\renkert2\Documents\ARG_Research\DymosPlanarQuadrotor\PLANAR_PLOT\ASSETS\DRONE_FLAT_1.png"
   inkscape:export-xdpi="300"
   inkscape:export-ydpi="300"
   xmlns:inkscape="http://www.inkscape.org/namespaces/inkscape"
   xmlns:sodipodi="http://sodipodi.sourceforge.net/DTD/sodipodi-0.dtd"
   xmlns:xlink="http://www.w3.org/1999/xlink"
   xmlns="http://www.w3.org/2000/svg"
   xmlns:svg="http://www.w3.org/2000/svg">
  <sodipodi:namedview
     id="namedview42"
     pagecolor="#ffffff"
     bordercolor="#666666"
     borderopacity="1.0"
     inkscape:pageshadow="2"
     inkscape:pageopacity="0.0"
     inkscape:pagecheckerboard="0"
     inkscape:document-units="mm"
     showgrid="false"
     units="in"
     width="8in"
     inkscape:zoom="0.69753788"
     inkscape:cx="429.36736"
     inkscape:cy="274.53706"
     inkscape:window-width="1920"
     inkscape:window-height="1001"
     inkscape:window-x="-9"
     inkscape:window-y="-9"
     inkscape:window-maximized="1"
     inkscape:current-layer="g136" />
  <defs
     id="defs37">
    <linearGradient
       id="linearGradient3744"
       inkscape:swatch="solid">
      <stop
         style="stop-color:#ff0000;stop-opacity:1;"
         offset="0"
         id="stop3742" />
    </linearGradient>
    <linearGradient
       inkscape:collect="always"
       xlink:href="#linearGradient3744"
       id="linearGradient3746"
       x1="1236.4971"
       y1="3441.4363"
       x2="1243.9971"
       y2="3441.4363"
       gradientUnits="userSpaceOnUse" />
  </defs>
  <g
     inkscape:label="Layer 1"
     inkscape:groupmode="layer"
     id="layer1">
    <g
       id="g136"
       transform="matrix(0.03527778,0,0,-0.03527778,57.840033,163.2979)">
      <g
         id="g1767"
         transform="matrix(2.2298417,0,0,2.2298417,-1847.7938,380.68221)">
        <path
           d="m 1384.96,1105.44 v 0 c -12.7,0 -23.09,10.38 -23.09,23.08 v 137.02 c 0,12.7 10.39,23.09 23.09,23.09 12.69,0 23.08,-10.39 23.08,-23.09 v -137.02 c 0,-12.7 -10.39,-23.08 -23.08,-23.08"
           style="fill:#52b9db;fill-opacity:1;fill-rule:nonzero;stroke:none"
           id="path330" />
        <path
           d="m 1167.74,594.02 h -21.08 l 55.05,256.429 h 65.48 L 1167.74,594.02"
           style="fill:#919d9c;fill-opacity:1;fill-rule:nonzero;stroke:none"
           id="path332" />
        <path
           d="M 1179.69,584.359 H 1131 c -5.32,0 -9.67,4.352 -9.67,9.661 0,5.32 4.35,9.66 9.67,9.66 h 48.69 c 5.32,0 9.67,-4.34 9.67,-9.66 0,-5.309 -4.35,-9.661 -9.67,-9.661"
           style="fill:#232423;fill-opacity:1;fill-rule:nonzero;stroke:none"
           id="path334" />
        <path
           d="m 1602.17,594.02 h 21.08 l -55.05,256.429 h -65.48 l 99.45,-256.429"
           style="fill:#919d9c;fill-opacity:1;fill-rule:nonzero;stroke:none"
           id="path336" />
        <path
           d="m 1590.22,584.359 h 48.7 c 5.31,0 9.66,4.352 9.66,9.661 0,5.32 -4.35,9.66 -9.66,9.66 h -48.7 c -5.31,0 -9.66,-4.34 -9.66,-9.66 0,-5.309 4.35,-9.661 9.66,-9.661"
           style="fill:#232423;fill-opacity:1;fill-rule:nonzero;stroke:none"
           id="path338" />
        <path
           d="M 1342.32,1186.8 955.316,1044.69 H 1814.6 l -385.61,142.06 c -27.97,10.31 -58.69,10.32 -86.67,0.05"
           style="fill:#161514;fill-opacity:1;fill-rule:nonzero;stroke:none"
           id="path340" />
        <path
           d="m 983.535,893.711 h 802.844 v 150.98 H 983.535 Z"
           style="fill:#6e757b;fill-opacity:1;fill-rule:nonzero;stroke:none"
           id="path342" />
        <path
           d="M 1814.6,1044.69 H 955.316 v 25.78 H 1814.6 v -25.78"
           style="fill:#52b9db;fill-opacity:1;fill-rule:nonzero;stroke:none"
           id="path344" />
        <path
           d="m 1427.6,751.602 387,142.109 H 955.316 L 1340.92,751.648 c 27.97,-10.308 58.7,-10.316 86.68,-0.046"
           style="fill:#161514;fill-opacity:1;fill-rule:nonzero;stroke:none"
           id="path346" />
        <path
           d="M 955.316,893.711 H 1814.6 V 867.93 H 955.316 v 25.781"
           style="fill:#52b9db;fill-opacity:1;fill-rule:nonzero;stroke:none"
           id="path348" />
        <path
           d="m 1384.87,936.531 c -141.3,0 -255.85,53.469 -255.85,103.469 h 511.71 c 0,-50 -114.56,-103.469 -255.86,-103.469"
           style="fill:#5a6167;fill-opacity:1;fill-rule:nonzero;stroke:none"
           id="path350" />
        <path
           d="m 2220,1020 h -494.51 c -24.26,0 -44.12,-25.73 -44.12,-50 0,-24.27 19.86,-50 44.12,-50 H 2220 v 100"
           style="fill:#484c51;fill-opacity:1;fill-rule:nonzero;stroke:none"
           id="path352" />
        <path
           d="m 2200.99,896.859 v 297.631 h 37.36 V 896.859 h -37.36"
           style="fill:#2d2f2f;fill-opacity:1;fill-rule:nonzero;stroke:none"
           id="path354" />
        <path
           d="m 2272.11,1080 c -3.59,40 -23.98,31.51 -48.83,31.51 -24.85,0 -45.23,8.49 -48.83,-31.51 h 97.66"
           style="fill:#52b9db;fill-opacity:1;fill-rule:nonzero;stroke:none"
           id="path356" />
        <path
           d="m 2186.81,870 c 2.69,-20 17.91,-31.508 36.47,-31.508 18.56,0 33.79,11.508 36.47,31.508 h -72.94"
           style="fill:#52b9db;fill-opacity:1;fill-rule:nonzero;stroke:none"
           id="path358" />
        <path
           d="m 2254.87,857.102 h -68.94 c -16.34,0 -29.71,13.367 -29.71,29.707 v 188.921 c 0,16.34 13.37,29.71 29.71,29.71 h 68.94 c 16.34,0 29.71,-13.37 29.71,-29.71 V 886.809 c 0,-16.34 -13.37,-29.707 -29.71,-29.707"
           style="fill:#2d2f2f;fill-opacity:1;fill-rule:nonzero;stroke:none"
           id="path360" />
        <path
           d="m 2284.58,1036.14 h -128.36 v 19.07 h 128.36 v -19.07"
           style="fill:#52b9db;fill-opacity:1;fill-rule:nonzero;stroke:none"
           id="path362" />
        <path
           d="m 2284.58,971.73 h -128.36 v 19.071 h 128.36 V 971.73"
           style="fill:#52b9db;fill-opacity:1;fill-rule:nonzero;stroke:none"
           id="path364" />
        <path
           d="m 2284.58,939.18 h -128.36 v 19.07 h 128.36 v -19.07"
           style="fill:#52b9db;fill-opacity:1;fill-rule:nonzero;stroke:none"
           id="path366" />
        <path
           d="m 2284.58,1004.29 h -128.36 v 9.53 h 128.36 v -9.53"
           style="fill:#52b9db;fill-opacity:1;fill-rule:nonzero;stroke:none"
           id="path368" />
        <path
           d="m 2152.42,1160.31 67.6,19.69 h -312.88 z"
           style="fill:#788586;fill-opacity:1;fill-rule:nonzero;stroke:none"
           id="path370" />
        <path
           d="m 1871.09,1200 -5.71,-13.32 41.76,-6.68 h 312.88 l 0.65,20 h -349.58"
           style="fill:#2d2f2f;fill-opacity:1;fill-rule:nonzero;stroke:none"
           id="path372" />
        <path
           d="M 2286.91,1219.69 2219.31,1200 H 2532.2 Z"
           style="fill:#788586;fill-opacity:1;fill-rule:nonzero;stroke:none"
           id="path374" />
        <path
           d="m 2568.25,1180 5.71,13.32 -41.76,6.68 h -312.89 l -0.64,-20 h 349.58"
           style="fill:#2d2f2f;fill-opacity:1;fill-rule:nonzero;stroke:none"
           id="path376" />
        <path
           d="m 550,1020 h 494.42 c 24.27,0 44.12,-25.73 44.12,-50 0,-24.27 -19.85,-50 -44.12,-50 H 550 v 100"
           style="fill:#484c51;fill-opacity:1;fill-rule:nonzero;stroke:none"
           id="path378" />
        <path
           d="M 568.922,896.859 V 1194.49 H 531.563 V 896.859 h 37.359"
           style="fill:#2d2f2f;fill-opacity:1;fill-rule:nonzero;stroke:none"
           id="path380" />
        <path
           d="m 497.801,1080 c 3.594,40 23.98,31.51 48.832,31.51 24.847,0 45.234,8.49 48.828,-31.51 h -97.66"
           style="fill:#52b9db;fill-opacity:1;fill-rule:nonzero;stroke:none"
           id="path382" />
        <path
           d="M 583.102,870 C 580.418,850 565.191,838.492 546.633,838.492 528.07,838.492 512.844,850 510.16,870 h 72.942"
           style="fill:#52b9db;fill-opacity:1;fill-rule:nonzero;stroke:none"
           id="path384" />
        <path
           d="m 515.047,857.102 h 68.933 c 16.34,0 29.708,13.367 29.708,29.707 v 188.921 c 0,16.34 -13.368,29.71 -29.708,29.71 h -68.933 c -16.34,0 -29.711,-13.37 -29.711,-29.71 V 886.809 c 0,-16.34 13.371,-29.707 29.711,-29.707"
           style="fill:#2d2f2f;fill-opacity:1;fill-rule:nonzero;stroke:none"
           id="path386" />
        <path
           d="m 485.336,1036.14 h 128.352 v 19.07 H 485.336 v -19.07"
           style="fill:#52b9db;fill-opacity:1;fill-rule:nonzero;stroke:none"
           id="path388" />
        <path
           d="m 485.336,971.73 h 128.352 v 19.071 H 485.336 V 971.73"
           style="fill:#52b9db;fill-opacity:1;fill-rule:nonzero;stroke:none"
           id="path390" />
        <path
           d="m 485.336,939.18 h 128.352 v 19.07 H 485.336 v -19.07"
           style="fill:#52b9db;fill-opacity:1;fill-rule:nonzero;stroke:none"
           id="path392" />
        <path
           d="m 485.336,1004.29 h 128.352 v 9.53 H 485.336 v -9.53"
           style="fill:#52b9db;fill-opacity:1;fill-rule:nonzero;stroke:none"
           id="path394" />
        <path
           d="M 617.492,1160.31 549.891,1180 h 312.886 z"
           style="fill:#788586;fill-opacity:1;fill-rule:nonzero;stroke:none"
           id="path396" />
        <path
           d="m 898.824,1200 5.715,-13.32 -41.762,-6.68 H 549.891 l -0.649,20 h 349.582"
           style="fill:#2d2f2f;fill-opacity:1;fill-rule:nonzero;stroke:none"
           id="path398" />
        <path
           d="M 483,1219.69 550.602,1200 H 237.715 Z"
           style="fill:#788586;fill-opacity:1;fill-rule:nonzero;stroke:none"
           id="path400" />
        <path
           d="m 201.664,1180 -5.711,13.32 41.762,6.68 h 312.887 l 0.648,-20 H 201.664"
           style="fill:#2d2f2f;fill-opacity:1;fill-rule:nonzero;stroke:none"
           id="path402" />
        <path
           d="m 1449.67,743.941 c 0,-35.793 -29.01,-64.8 -64.8,-64.8 -35.79,0 -64.8,29.007 -64.8,64.8 0,35.789 29.01,64.797 64.8,64.797 35.79,0 64.8,-29.008 64.8,-64.797"
           style="fill:#6e757b;fill-opacity:1;fill-rule:nonzero;stroke:none"
           id="path404" />
        <path
           d="m 1411.41,743.941 c 0,-14.66 -11.89,-26.543 -26.54,-26.543 -14.66,0 -26.54,11.883 -26.54,26.543 0,14.649 11.88,26.528 26.54,26.528 14.65,0 26.54,-11.879 26.54,-26.528"
           style="fill:#161514;fill-opacity:1;fill-rule:nonzero;stroke:none"
           id="path406" />
      </g>
      <path
         style="fill:none;stroke:url(#linearGradient3746);stroke-width:58.5354;stroke-linecap:round;stroke-linejoin:miter;stroke-miterlimit:4;stroke-dasharray:none;stroke-opacity:1"
         d="m 1240.2471,3704.2357 0,-1235.2376"
         id="path1847"
         sodipodi:nodetypes="cc" />
      <path
         style="fill:none;stroke:#00ff00;stroke-width:58.5354;stroke-linecap:round;stroke-linejoin:miter;stroke-miterlimit:4;stroke-dasharray:none;stroke-opacity:1"
         d="m 3930.0297,2468.371 -2689.7826,0"
         id="path1849"
         sodipodi:nodetypes="cc" />
    </g>
  </g>
</svg>
